<svg xmlns="http://www.w3.org/2000/svg" width="576" height="509" viewBox="0 0 576 509" fill="none"><path d="M488.637 319.867C488.637 451.246 387.991 508.093 249.948 508.093C111.906 508.093 0 425.735 0 294.356C0 162.977 111.906 56.473 249.948 56.473C387.991 56.473 488.637 188.488 488.637 319.867Z" fill="#CCE7F6"></path><path d="M162.879 161.127C162.879 169.568 156.072 176.411 147.957 176.411C139.843 176.411 133.265 169.568 133.265 161.127C133.265 152.685 139.843 146.797 147.957 146.797C156.072 146.797 162.879 152.685 162.879 161.127Z" fill="#98BFEC"></path><path d="M270.472 175.934C270.472 184.108 263.88 190.718 256.05 190.718C248.23 190.718 241.857 184.118 241.857 175.934C241.857 167.792 248.187 162.104 256.05 162.104C263.923 162.104 270.472 167.801 270.472 175.934Z" fill="#98BFEC" stroke="#98BFEC"></path><path fill-rule="evenodd" clip-rule="evenodd" d="M250.901 220.779C236.838 230.987 216.718 236.14 195.209 233.51C173.699 230.88 155.406 221.03 144.208 207.734L250.901 220.779Z" fill="white"></path><path d="M189.634 266.902C149.275 262.065 143.086 226.812 142.203 213.329C142.016 210.48 144.42 208.328 147.262 208.603C166.458 210.464 233.264 217.043 248.9 219.937C267.213 223.326 239.695 272.901 189.634 266.902Z" stroke="#98BFEC" stroke-width="5"></path><path d="M496.275 7.76512C498.406 4.47109 503.328 4.8035 504.997 8.35425L572.545 152.034C574.13 155.404 571.605 159.262 567.882 159.159L410.169 154.816C406.269 154.708 403.989 150.376 406.109 147.101L496.275 7.76512Z" fill="#CCE7F6"></path></svg>