<svg width="349" height="285" viewBox="0 0 349 285" fill="none" xmlns="http://www.w3.org/2000/svg">
<path d="M0.585938 186.5C0.585938 282.598 78.0407 284.5 173.586 284.5C269.131 284.5 348.586 282.598 348.586 186.5C348.586 90.4025 269.131 0 173.586 0C78.0407 0 0.585938 90.4025 0.585938 186.5Z" fill="#DCDAA6"/>
<path d="M158.976 111.88C158.776 111.631 158.396 111.631 158.196 111.88L148.512 123.937C148.249 124.264 148.482 124.75 148.901 124.75H168.27C168.69 124.75 168.923 124.264 168.66 123.937L158.976 111.88Z" stroke="#AB1089" stroke-width="3"/>
<circle cx="2.5" cy="2.5" r="2.5" transform="matrix(-1 0 0 1 192.586 108)" fill="#AB1089"/>
<circle cx="2.5" cy="2.5" r="2.5" transform="matrix(-1 0 0 1 136.586 108)" fill="#AB1089"/>
</svg>
