<svg width="305" height="282" viewBox="0 0 305 282" fill="none" xmlns="http://www.w3.org/2000/svg">
<path d="M0.585938 183.5C0.585938 279.598 59.6828 281.5 151.086 281.5C242.489 281.5 304.586 279.598 304.586 183.5C304.586 87.4025 242.489 0 151.086 0C59.6828 0 0.585938 87.4025 0.585938 183.5Z" fill="#A6DCDC"/>
<ellipse cx="2.39162" cy="2.5" rx="2.39162" ry="2.5" transform="matrix(-1 0 0 1 196.374 109.5)" fill="#AB1010"/>
<ellipse cx="2.39162" cy="2.5" rx="2.39162" ry="2.5" transform="matrix(-1 0 0 1 144.715 109.5)" fill="#AB1010"/>
<path d="M148.843 120.342C148.843 121.116 149.218 122.006 150.076 122.953C150.93 123.895 152.204 124.824 153.833 125.645C157.089 127.286 161.618 128.421 166.586 128.421C171.556 128.421 176.412 127.285 179.998 125.63C181.793 124.802 183.227 123.864 184.197 122.911C185.178 121.947 185.586 121.069 185.586 120.342C185.586 119.996 185.493 119.875 185.433 119.817C185.343 119.731 185.136 119.611 184.678 119.546C183.737 119.412 182.286 119.578 180.341 119.92C179.597 120.051 178.795 120.205 177.945 120.368C174.497 121.031 170.278 121.842 166.086 121.842C161.712 121.842 157.714 120.961 154.643 120.284C154.034 120.15 153.462 120.024 152.931 119.915C151.253 119.568 150.122 119.419 149.43 119.541C149.12 119.595 149.017 119.686 148.977 119.734C148.936 119.784 148.843 119.934 148.843 120.342Z" stroke="#AB1010" stroke-width="2"/>
</svg>
