<svg xmlns="http://www.w3.org/2000/svg" width="344" height="282" viewBox="0 0 344 282" fill="none"><path d="M343.776 184C343.776 280.098 275.074 282 178.609 282C82.1432 282 0.776367 280.098 0.776367 184C0.776367 87.9025 82.1432 0.5 178.609 0.5C275.074 0.5 343.776 87.9025 343.776 184Z" fill="#A6DCB2"></path><ellipse cx="135.168" cy="112" rx="2.39162" ry="2.5" fill="#325517"></ellipse><ellipse cx="192.168" cy="112" rx="2.39162" ry="2.5" fill="#325517"></ellipse><path d="M161.547 134.698C161.381 135.826 160.531 137.949 158.828 139.633C157.186 141.256 154.774 142.458 151.345 141.954C147.917 141.45 145.975 139.61 144.889 137.591C143.761 135.494 143.571 133.217 143.739 132.079C143.778 131.813 143.829 131.67 143.862 131.601C143.877 131.57 143.887 131.557 143.89 131.554C143.906 131.543 144.091 131.434 144.778 131.443C145.474 131.451 146.424 131.571 147.772 131.779C148.233 131.85 148.741 131.932 149.292 132.02C150.299 132.182 151.451 132.367 152.727 132.555C154.186 132.769 155.467 132.941 156.561 133.088C157.129 133.165 157.646 133.234 158.112 133.299C159.521 133.496 160.435 133.652 161.044 133.832C161.374 133.93 161.524 134.011 161.584 134.05C161.594 134.121 161.605 134.306 161.547 134.698ZM161.618 134.076C161.618 134.076 161.617 134.075 161.615 134.073C161.617 134.075 161.618 134.076 161.618 134.076Z" stroke="#325517" stroke-width="3"></path></svg>