<svg width="312" height="234" viewBox="0 0 312 234" fill="none" xmlns="http://www.w3.org/2000/svg">
<path d="M308.846 135.462C327.094 233.285 260.916 233.285 169.408 233.285C77.8995 233.285 -16.9057 242.785 3.34611 135.462C21.133 41.2007 89.3462 6.62783 142.346 1.28504C195.346 -4.05776 290.598 37.6382 308.846 135.462Z" fill="#FBD26B"/>
<path d="M146.846 67.5908C160.243 77.4292 175.433 69.3843 180.846 65.2849L146.846 67.5908Z" fill="#F9F0EF"/>
<path fill-rule="evenodd" clip-rule="evenodd" d="M191.592 63.8196C191.671 63.0458 192.28 62.4168 193.056 62.3712C193.939 62.3193 194.681 63.0349 194.601 63.9154C193.345 77.5952 180.798 88.8276 164.867 89.7643C148.936 90.701 135.159 81.0162 132.309 67.5779C132.125 66.7129 132.779 65.9152 133.661 65.8633C134.438 65.8177 135.117 66.371 135.286 67.1301C137.887 78.8033 150.027 87.6317 164.691 86.7695C179.355 85.9073 190.377 75.7171 191.592 63.8196Z" fill="#BB5548"/>
<path d="M133.846 66.97L192.846 63.97" stroke="#BB5548" stroke-width="3" stroke-linecap="round"/>
<path d="M112.143 55.2849L118.101 57.1804C119.697 57.6881 120 59.815 118.609 60.7475L111.846 65.2805" stroke="#BB5548" stroke-width="3"/>
<path d="M217.842 54.2849L211.884 56.1804C210.288 56.6881 209.986 58.815 211.377 59.7475L218.139 64.2805" stroke="#BB5548" stroke-width="3"/>
</svg>
